PathFileType	4	(X/Y/Z)	S01_0015_Gait_markers.trc
DataRate	CameraRate	NumFrames	NumMarkers	Units	OrigDataRate	OrigDataStartFrame	OrigNumFrames
250.000000	250.000000	4	54	mm	250.000000	179	358
Frame#	Time	HEAD_ANT			R_HEAD			L_HEAD			C7			R_BACK			L_BACK			STERNUM			R_ACROMION			R_HUM_PROX			R_HUM_ANT			R_HUM_POST			R_ELBOW_LAT			R_ELBOW_MED			R_FOREARM			R_WIRST_LAT			R_WRITS_MED			R_HAND			L_ACROMION			L_HUM_PROX			L_HUM_ANT			L_HUM_POST			L_ELBOW_LAT			L_ELBOW_MED			L_FOREARM			L_WRIST_LAT			L_WIRST_MED			L_HAND			R_ILIAC			SACRUM			L_ILIAC			R_GTROCH			R_THIGH__1			R_THIGH_2			R_THIGH_3			R_THIGH_4			R_SHANK_1			R_SHANK_2			R_SHANK_3			R_SHANK_4			R_HEEL			R_FOOT_LAT			R_FOOT_MED			L_GTROCH			L_THIGH_1			L_THIGH_2			L_THIGH_3			L_THIGH_4			L_SHANK_1			L_SHANK_2			L_SHANK_3			L_SHANK_4			L_HEEL			L_FOOT_LAT			L_FOOT_MED			
		X1	Y1	Z1	X2	Y2	Z2	X3	Y3	Z3	X4	Y4	Z4	X5	Y5	Z5	X6	Y6	Z6	X7	Y7	Z7	X8	Y8	Z8	X9	Y9	Z9	X10	Y10	Z10	X11	Y11	Z11	X12	Y12	Z12	X13	Y13	Z13	X14	Y14	Z14	X15	Y15	Z15	X16	Y16	Z16	X17	Y17	Z17	X18	Y18	Z18	X19	Y19	Z19	X20	Y20	Z20	X21	Y21	Z21	X22	Y22	Z22	X23	Y23	Z23	X24	Y24	Z24	X25	Y25	Z25	X26	Y26	Z26	X27	Y27	Z27	X28	Y28	Z28	X29	Y29	Z29	X30	Y30	Z30	X31	Y31	Z31	X32	Y32	Z32	X33	Y33	Z33	X34	Y34	Z34	X35	Y35	Z35	X36	Y36	Z36	X37	Y37	Z37	X38	Y38	Z38	X39	Y39	Z39	X40	Y40	Z40	X41	Y41	Z41	X42	Y42	Z42	X43	Y43	Z43	X44	Y44	Z44	X45	Y45	Z45	X46	Y46	Z46	X47	Y47	Z47	X48	Y48	Z48	X49	Y49	Z49	X50	Y50	Z50	X51	Y51	Z51	X52	Y52	Z52	X53	Y53	Z53	X54	Y54	Z54	

180	0.716	1067.263305664062	1709.364624023438	-334.1259765624996	1012.212707519531	1659.5986328125	-252.9819793701168	1007.725402832031	1656.65234375	-400.7490234374997	877.1309814453125	1487.531494140625	-317.536468505859	806.0377197265625	1294.526123046875	-241.747131347656	799.3780517578125	1294.099487304688	-381.3547363281247	1052.99267578125	1322.891479492188	-324.6728820800778	966.7974243164062	1437.659912109375	-149.5162506103512	949.7183837890625	1277.688354492188	-56.18399047851534	1016.917541503906	1196.205688476562	-64.8825607299802	898.8551635742188	1190.404296875	-34.276371002197	953.38525390625	1086.969482421875	-35.87830352783179	918.4219970703125	1079.696533203125	-112.4878005981443	1093.69873046875	932.361328125	-63.53434753417948	1141.413208007812	882.1381225585938	-112.4397659301756	1087.678955078125	838.717529296875	-68.19410705566388	1176.220825195312	797.970458984375	-64.25947570800764	946.2835083007812	1440.500366210938	-489.0492553710934	903.84619140625	1275.956909179688	-580.9041748046873	959.249267578125	1190.89501953125	-588.1209716796873	835.7388916015625	1203.182250976563	-599.2460937499998	883.9048461914062	1095.191162109375	-614.7750854492185	837.6607055664062	1092.743286132813	-551.938049316406	978.572265625	912.2732543945314	-612.301330566406	1012.986389160156	849.5460205078126	-564.7854003906248	958.1897583007812	831.4346923828126	-621.4667968749998	1030.88330078125	769.0906982421876	-615.4752197265623	934.88671875	1039.198120117188	-146.5745391845701	815.0568237304688	1011.292236328125	-322.9122924804685	934.0707397460938	1034.386596679688	-492.2178955078123	872.616455078125	908.607666015625	-136.5913238525389	820.4474487304688	643.7943725585938	-158.838165283203	878.9501953125	640.983642578125	-152.8223724365233	851.0174560546875	542.6085815429688	-186.8937835693358	791.9695434570312	568.5809936523438	-180.3150329589843	673.0382690429688	369.4245300292969	-180.2146759033202	711.4345703125	326.0334167480469	-196.6153564453124	667.4291381835938	254.4044647216797	-216.6249237060546	614.9765014648438	288.6883544921876	-205.2471771240234	478.1394958496094	128.5871582031251	-289.2093811035156	606.9573974609375	22.68520355224614	-212.2598419189453	669.6770629882812	28.85463905334479	-307.9462585449219	914.1483764648438	918.3049926757814	-500.8956298828123	1097.305297851562	668.7109985351564	-482.2601928710936	1041.961669921875	665.3980102539064	-503.4168395996092	1065.189331054688	567.6104125976564	-464.5875854492186	1121.644653320312	596.0346679687501	-453.4017639160155	1178.291870117188	331.7688598632814	-451.3255615234374	1130.61962890625	293.4959716796876	-453.5902404785156	1154.612670898438	211.2207641601563	-436.4131164550781	1213.016357421875	237.2888946533204	-429.9140014648437	1177.826416015625	28.99205780029305	-364.8869323730469	1351.826293945312	49.63485336303721	-435.7924499511719	1384.311279296875	74.08409881591804	-341.8008117675781	
181	0.72	1073.003051757812	1709.104736328125	-334.7990722656246	1017.869079589844	1659.409301757812	-253.7955169677731	1013.488403320312	1656.376953125	-401.4213256835934	883.0494384765625	1487.407958984375	-317.9752502441403	812.1469116210938	1294.111328125	-242.4432373046872	805.56103515625	1293.554077148438	-382.0392761230466	1059.097412109375	1322.878051757812	-325.2945556640622	972.6055297851562	1437.401977539062	-150.1458740234372	955.4078369140625	1277.485717773438	-56.84107589721651	1022.475708007812	1196.001831054688	-65.46020507812473	904.3784790039062	1190.208862304688	-35.24064636230442	958.8779907226562	1086.678833007812	-36.61708068847632	923.9230346679688	1079.569946289062	-113.3414382934568	1098.718139648438	931.6146850585938	-63.60791397094706	1146.483276367188	881.1425170898438	-112.2671203613279	1092.385986328125	838.00830078125	-68.22116088867169	1180.497680664062	796.9791259765625	-63.44797897338849	952.2316284179688	1440.06982421875	-489.7402954101559	909.9618530273438	1275.378784179688	-581.2642822265623	965.3679809570312	1190.420043945313	-589.5122070312498	841.8294677734375	1202.779418945313	-599.5932006835935	892.9207763671875	1093.533447265625	-614.0299682617185	843.7066040039062	1092.2763671875	-552.0474853515623	984.053466796875	911.4771728515626	-612.7689819335935	1018.640991210938	848.9293823242189	-565.021057128906	963.7792358398438	830.8259277343751	-621.8334350585935	1036.328857421875	768.1759643554689	-615.2259521484373	941.6533203125	1038.765258789062	-146.9118957519529	821.5045776367188	1010.949829101563	-323.1512451171873	940.499755859375	1034.321899414062	-492.4042663574216	878.9601440429688	908.0421752929688	-136.8138122558592	827.0321044921875	643.2047119140625	-159.5616302490233	885.5338134765625	640.2678833007812	-153.7922515869139	857.689697265625	541.9959716796875	-187.1687164306639	798.5982055664062	568.03662109375	-180.6478118896483	678.46533203125	370.2768859863282	-180.155548095703	716.2166748046875	326.1610412597657	-196.3489379882812	671.17626953125	255.1384582519532	-216.2954711914062	619.2377319335938	289.6200561523438	-205.1758270263671	480.4529113769531	131.8536071777344	-288.3469238281249	607.371337890625	23.06302261352544	-212.1966094970703	669.7652587890625	28.87923431396491	-307.8734130859375	920.9306640625	918.1950073242189	-501.3568725585935	1104.82568359375	670.2822265625001	-483.0483398437498	1049.331420898438	666.3265380859376	-503.3818054199217	1071.138671875	568.5585937500001	-464.719757080078	1128.447265625	596.3359985351564	-453.1964111328124	1182.776977539062	331.4226684570314	-450.3966674804687	1134.874389648438	293.6030883789064	-452.5863037109374	1158.232666015625	210.8885192871095	-435.1371154785156	1216.860595703125	236.4914550781251	-429.4581604003906	1179.590942382812	30.36079216003426	-364.8844604492188	1354.047729492188	45.81705474853526	-435.5133666992188	1388.107543945312	68.52452087402351	-340.8902893066406	
182	0.724	1078.701538085938	1708.964111328125	-335.4867248535152	1023.630798339844	1659.263916015625	-254.5247802734371	1019.094482421875	1656.07275390625	-402.2028198242184	888.75634765625	1486.866088867188	-318.7696838378903	818.1043090820312	1293.874755859375	-243.1585845947263	811.908203125	1293.083740234375	-382.3017578124997	1065.190063476562	1322.88427734375	-325.938293457031	978.3895874023438	1437.238891601562	-150.8138122558591	961.1121826171875	1277.269287109375	-57.52123260498018	1028.040893554688	1195.73291015625	-66.13022613525364	909.8445434570312	1189.99853515625	-36.08398437499974	964.25390625	1086.633056640625	-37.47079467773413	929.7280883789062	1079.371459960938	-114.2889556884763	1103.612060546875	930.861572265625	-63.63761901855448	1151.45068359375	880.1759033203125	-112.0663299560545	1096.968994140625	837.2943115234375	-68.27932739257794	1184.7890625	795.8592529296875	-62.83086395263654	958.3619384765625	1439.709350585938	-490.3569030761715	916.0741577148438	1274.952758789063	-581.890441894531	971.3683471679688	1189.869140625	-588.8956909179685	847.8756103515625	1202.290649414063	-600.2011718749998	899.1396484375	1092.910522460938	-614.1798095703123	849.8077392578125	1091.823852539063	-552.2067260742185	989.8724365234375	910.8779907226564	-613.0067138671873	1024.534912109375	848.2319946289064	-565.3995361328123	969.5852661132812	830.1736450195314	-622.1757202148435	1042.005615234375	767.3712768554689	-615.6263427734374	948.6822509765625	1038.322875976562	-147.3413391113279	827.90283203125	1010.898254394531	-323.1985778808591	947.2694702148438	1034.094848632812	-492.9591979980466	885.3754272460938	907.4247436523438	-137.3092346191404	833.8139038085938	642.6401977539062	-160.0875244140624	892.3952026367188	639.9039306640625	-154.0895385742186	864.5199584960938	541.3132934570312	-187.4724273681639	805.6271362304688	567.46630859375	-180.9428863525389	684.0221557617188	371.1734924316407	-179.8011779785155	721.091064453125	326.4963073730469	-196.005386352539	675.2182006835938	255.9276733398438	-215.7530975341796	623.7398681640625	291.6706848144532	-204.3687896728515	483.0971374511719	135.4493255615235	-287.0423889160156	607.8789672851562	23.5869636535645	-212.0802917480469	669.8843994140625	28.92349815368659	-307.8089904785156	927.5682373046875	918.2734985351564	-501.9565734863279	1111.819213867188	670.8472290039064	-482.8806762695311	1056.354858398438	667.5046386718751	-503.3731079101561	1077.51904296875	569.2384033203126	-464.729522705078	1134.865478515625	596.5792236328126	-453.0616760253905	1187.558959960938	331.405731201172	-450.0733337402343	1139.465209960938	293.8341674804689	-451.2844848632812	1162.82958984375	211.2292022705079	-434.4584655761718	1221.7939453125	236.4137420654298	-429.4616699218749	1181.4541015625	31.63878631591805	-364.7475280761719	1356.960693359375	42.73016357421885	-434.6013488769531	1391.615478515625	64.36361694335945	-340.3799438476562	
183	0.728	1084.458374023438	1709.057373046875	-336.4036254882809	1029.275024414062	1659.236938476562	-255.3444976806637	1024.816528320312	1655.876098632812	-402.9763488769528	893.799072265625	1486.63232421875	-319.6444702148434	824.2323608398438	1293.853759765625	-244.0263519287107	818.135009765625	1292.990356445312	-382.8593139648435	1071.359497070312	1323.036499023438	-326.5709533691403	984.185302734375	1437.21044921875	-151.4811706542966	966.6634521484375	1277.206176757812	-58.14258193969698	1033.612182617188	1195.577880859375	-66.66843414306614	915.2616577148438	1189.85986328125	-37.14229965209935	969.7130126953125	1086.304565429688	-38.33195877075171	935.4827270507812	1079.189575195312	-115.1057052612302	1108.429565429688	930.1526489257812	-63.79505538940409	1156.31494140625	879.1744384765625	-111.8554077148436	1101.529174804688	836.6517944335938	-68.21724700927716	1189.776611328125	795.0396118164062	-63.14189910888654	964.335205078125	1439.528076171875	-491.082122802734	922.1309814453125	1274.51708984375	-582.5075073242185	977.61669921875	1189.444702148438	-589.2857666015623	854.7365112304688	1201.991821289063	-600.9201049804685	905.128662109375	1092.381103515625	-614.4877319335935	856.0313110351562	1091.423095703125	-552.8356323242185	995.8892822265625	910.2848510742189	-613.1611328124998	1030.090942382812	847.5311889648439	-565.673889160156	975.1351928710938	829.1950073242189	-621.6740722656248	1047.3623046875	766.8319091796876	-616.5664062499999	955.6484375	1037.893188476562	-147.5202484130857	834.3007202148438	1010.950561523438	-323.361389160156	953.973388671875	1034.1162109375	-493.3076477050779	891.7672729492188	906.793212890625	-137.6320953369139	840.7318115234375	641.96826171875	-160.688995361328	899.318603515625	639.119873046875	-154.7039337158202	871.6024169921875	540.705078125	-187.9329528808593	812.6983032226562	566.7652587890625	-181.3901519775389	689.7247314453125	372.0333251953126	-179.5534362792968	726.2447509765625	326.9007263183594	-195.6508789062499	679.492919921875	256.9201049804688	-215.0729827880859	628.3092651367188	292.8594360351563	-204.2901763916015	485.0437622070312	139.6430206298829	-284.9076843261718	608.5795288085938	24.24302673339848	-211.9057922363281	670.0158081054688	28.95052719116218	-307.7787475585938	934.409423828125	918.2484741210939	-502.5957031249998	1118.688232421875	671.4537963867189	-482.3924560546873	1063.31298828125	668.3104858398439	-503.2681884765623	1084.004150390625	569.8469848632814	-464.9590759277343	1141.306762695312	596.6638183593751	-452.906036376953	1192.773315429688	331.8916931152345	-450.3115234374999	1144.247924804688	294.8357543945314	-451.0407714843749	1168.013549804688	211.8670959472657	-434.0821228027343	1226.970825195312	237.0520782470704	-429.4894104003906	1183.19970703125	32.80783462524422	-364.8094482421875	1359.343872070312	39.81097412109385	-434.3358459472656	1394.481811523438	61.73578262329109	-340.4344787597656	
